<svg width="69" height="25" viewBox="0 0 69 25" fill="none" xmlns="http://www.w3.org/2000/svg">
<circle cx="10" cy="12" r="10" fill="#7A28CB"/>
<path d="M9.42578 6.47C10.5358 6.47 11.5058 6.69 12.3358 7.13C13.1658 7.57 13.8058 8.19 14.2558 8.99C14.7158 9.78 14.9458 10.695 14.9458 11.735C14.9458 12.765 14.7158 13.68 14.2558 14.48C13.8058 15.28 13.1608 15.9 12.3208 16.34C11.4908 16.78 10.5258 17 9.42578 17H5.48078V6.47H9.42578ZM9.26078 14.78C10.2308 14.78 10.9858 14.515 11.5258 13.985C12.0658 13.455 12.3358 12.705 12.3358 11.735C12.3358 10.765 12.0658 10.01 11.5258 9.47C10.9858 8.93 10.2308 8.66 9.26078 8.66H8.04578V14.78H9.26078Z" fill="white"/>
<path d="M28.82 12.68C28.82 12.92 28.805 13.17 28.775 13.43H22.97C23.01 13.95 23.175 14.35 23.465 14.63C23.765 14.9 24.13 15.035 24.56 15.035C25.2 15.035 25.645 14.765 25.895 14.225H28.625C28.485 14.775 28.23 15.27 27.86 15.71C27.5 16.15 27.045 16.495 26.495 16.745C25.945 16.995 25.33 17.12 24.65 17.12C23.83 17.12 23.1 16.945 22.46 16.595C21.82 16.245 21.32 15.745 20.96 15.095C20.6 14.445 20.42 13.685 20.42 12.815C20.42 11.945 20.595 11.185 20.945 10.535C21.305 9.885 21.805 9.385 22.445 9.035C23.085 8.685 23.82 8.51 24.65 8.51C25.46 8.51 26.18 8.68 26.81 9.02C27.44 9.36 27.93 9.845 28.28 10.475C28.64 11.105 28.82 11.84 28.82 12.68ZM26.195 12.005C26.195 11.565 26.045 11.215 25.745 10.955C25.445 10.695 25.07 10.565 24.62 10.565C24.19 10.565 23.825 10.69 23.525 10.94C23.235 11.19 23.055 11.545 22.985 12.005H26.195ZM33.9382 14.6L35.7532 8.63H38.4832L35.5132 17H32.3482L29.3782 8.63H32.1232L33.9382 14.6Z" fill="white"/>
<path d="M47.1378 6.47V8.525H44.3478V17H41.7828V8.525H38.9928V6.47H47.1378ZM56.3151 12.68C56.3151 12.92 56.3001 13.17 56.2701 13.43H50.4651C50.5051 13.95 50.6701 14.35 50.9601 14.63C51.2601 14.9 51.6251 15.035 52.0551 15.035C52.6951 15.035 53.1401 14.765 53.3901 14.225H56.1201C55.9801 14.775 55.7251 15.27 55.3551 15.71C54.9951 16.15 54.5401 16.495 53.9901 16.745C53.4401 16.995 52.8251 17.12 52.1451 17.12C51.3251 17.12 50.5951 16.945 49.9551 16.595C49.3151 16.245 48.8151 15.745 48.4551 15.095C48.0951 14.445 47.9151 13.685 47.9151 12.815C47.9151 11.945 48.0901 11.185 48.4401 10.535C48.8001 9.885 49.3001 9.385 49.9401 9.035C50.5801 8.685 51.3151 8.51 52.1451 8.51C52.9551 8.51 53.6751 8.68 54.3051 9.02C54.9351 9.36 55.4251 9.845 55.7751 10.475C56.1351 11.105 56.3151 11.84 56.3151 12.68ZM53.6901 12.005C53.6901 11.565 53.5401 11.215 53.2401 10.955C52.9401 10.695 52.5651 10.565 52.1151 10.565C51.6851 10.565 51.3201 10.69 51.0201 10.94C50.7301 11.19 50.5501 11.545 50.4801 12.005H53.6901ZM57.1583 12.8C57.1583 11.94 57.3183 11.185 57.6383 10.535C57.9683 9.885 58.4133 9.385 58.9733 9.035C59.5333 8.685 60.1583 8.51 60.8483 8.51C61.4383 8.51 61.9533 8.63 62.3933 8.87C62.8433 9.11 63.1883 9.425 63.4283 9.815V8.63H65.9933V17H63.4283V15.815C63.1783 16.205 62.8283 16.52 62.3783 16.76C61.9383 17 61.4233 17.12 60.8333 17.12C60.1533 17.12 59.5333 16.945 58.9733 16.595C58.4133 16.235 57.9683 15.73 57.6383 15.08C57.3183 14.42 57.1583 13.66 57.1583 12.8ZM63.4283 12.815C63.4283 12.175 63.2483 11.67 62.8883 11.3C62.5383 10.93 62.1083 10.745 61.5983 10.745C61.0883 10.745 60.6533 10.93 60.2933 11.3C59.9433 11.66 59.7683 12.16 59.7683 12.8C59.7683 13.44 59.9433 13.95 60.2933 14.33C60.6533 14.7 61.0883 14.885 61.5983 14.885C62.1083 14.885 62.5383 14.7 62.8883 14.33C63.2483 13.96 63.4283 13.455 63.4283 12.815Z" fill="#7A28CB"/>
</svg>
